<svg xmlns="http://www.w3.org/2000/svg" width="22.369" height="22.369" viewBox="0 0 22.369 22.369">
  <g id="Group_35635" data-name="Group 35635" transform="translate(-219.168 -6749.926)">
    <path id="instagram" d="M11.405,22.371h-.223c-1.753,0-3.374-.04-4.949-.136A6.616,6.616,0,0,1,2.42,20.791,6.121,6.121,0,0,1,.363,17.47a14.715,14.715,0,0,1-.338-3.514C.014,13.14,0,12.172,0,11.188S.014,9.232.026,8.416A14.716,14.716,0,0,1,.363,4.9,6.121,6.121,0,0,1,2.42,1.581,6.616,6.616,0,0,1,6.233.138C7.809.042,9.429,0,11.187,0s3.374.04,4.949.136a6.616,6.616,0,0,1,3.813,1.443A6.12,6.12,0,0,1,22.006,4.9a14.715,14.715,0,0,1,.338,3.514c.011.817.023,1.784.025,2.768v0c0,.984-.014,1.952-.025,2.768a14.707,14.707,0,0,1-.338,3.514,6.12,6.12,0,0,1-2.057,3.321,6.616,6.616,0,0,1-3.813,1.443c-1.509.092-3.059.137-4.731.137Zm-.223-1.748c1.725,0,3.309-.039,4.847-.133a4.814,4.814,0,0,0,2.815-1.054,4.412,4.412,0,0,0,1.468-2.4,13.387,13.387,0,0,0,.283-3.105c.011-.811.023-1.772.025-2.747s-.014-1.935-.025-2.747a13.389,13.389,0,0,0-.283-3.106,4.412,4.412,0,0,0-1.468-2.4A4.815,4.815,0,0,0,16.03,1.882c-1.539-.094-3.122-.137-4.843-.133s-3.309.039-4.847.133A4.815,4.815,0,0,0,3.524,2.935a4.412,4.412,0,0,0-1.468,2.4,13.389,13.389,0,0,0-.283,3.106c-.011.812-.023,1.773-.025,2.749s.014,1.933.025,2.744a13.387,13.387,0,0,0,.283,3.105,4.412,4.412,0,0,0,1.468,2.4A4.815,4.815,0,0,0,6.339,20.49C7.878,20.583,9.462,20.627,11.182,20.623Zm-.042-3.975A5.461,5.461,0,1,1,16.6,11.186,5.468,5.468,0,0,1,11.141,16.647Zm0-9.175a3.714,3.714,0,1,0,3.714,3.714A3.718,3.718,0,0,0,11.141,7.472Zm6.073-3.5a1.311,1.311,0,1,0,1.311,1.311A1.311,1.311,0,0,0,17.214,3.977Zm0,0" transform="translate(219.168 6749.925)" fill="#fff"/>
  </g>
</svg>
