<svg xmlns="http://www.w3.org/2000/svg" width="22.369" height="22.369" viewBox="0 0 22.369 22.369">
  <g id="Group_35636" data-name="Group 35636" transform="translate(-276.315 -6750.315)">
    <g id="_x31_0.Linkedin" transform="translate(266.315 6740.315)">
      <path id="Path_22353" data-name="Path 22353" d="M52.756,50.595V42.4c0-4.026-.867-7.1-5.564-7.1a4.855,4.855,0,0,0-4.39,2.4h-.056V35.663H38.3V50.595h4.642v-7.41c0-1.957.363-3.831,2.768-3.831,2.377,0,2.4,2.209,2.4,3.943v7.27h4.642Z" transform="translate(-20.387 -18.226)" fill="#fff"/>
      <path id="Path_22354" data-name="Path 22354" d="M11.3,36.6h4.642V51.531H11.3Z" transform="translate(-0.937 -19.162)" fill="#fff"/>
      <path id="Path_22355" data-name="Path 22355" d="M12.684,10a2.7,2.7,0,1,0,2.684,2.684A2.685,2.685,0,0,0,12.684,10Z" fill="#fff"/>
    </g>
  </g>
</svg>
