<svg xmlns="http://www.w3.org/2000/svg" width="130" height="130" viewBox="0 0 130 130">
  <g id="Group_35924" data-name="Group 35924" transform="translate(-304 -2633)">
    <circle id="Ellipse_1" data-name="Ellipse 1" cx="65" cy="65" r="65" transform="translate(304 2633)" fill="#0a1e2a"/>
    <g id="business-and-finance" transform="translate(339 2668)">
      <path id="Path_14" data-name="Path 14" d="M56.836,6.913H3.164A3.168,3.168,0,0,0,0,10.078V50.169a2.922,2.922,0,0,0,2.918,2.918H57.082A2.922,2.922,0,0,0,60,50.168V10.078a3.168,3.168,0,0,0-3.164-3.165Zm-55.2,3.165A1.525,1.525,0,0,1,3.164,8.555H56.836a1.525,1.525,0,0,1,1.523,1.523v5.683H1.641ZM58.359,50.169a1.279,1.279,0,0,1-1.278,1.278H2.918a1.279,1.279,0,0,1-1.278-1.279V17.4H58.359Z" fill="#2ab7c8"/>
      <path id="Path_15" data-name="Path 15" d="M55.43,11.337H23.291a.82.82,0,0,0,0,1.641H55.43a.82.82,0,1,0,0-1.641Z" fill="#2ab7c8"/>
      <path id="Path_16" data-name="Path 16" d="M6.739,11.337H4.57a.82.82,0,0,0,0,1.641H6.739a.82.82,0,1,0,0-1.641Z" fill="#2ab7c8"/>
      <path id="Path_17" data-name="Path 17" d="M12.979,11.337H10.81a.82.82,0,0,0,0,1.641h2.169a.82.82,0,1,0,0-1.641Z" fill="#2ab7c8"/>
      <path id="Path_18" data-name="Path 18" d="M19.219,11.337H17.051a.82.82,0,0,0,0,1.641h2.168a.82.82,0,1,0,0-1.641Z" fill="#2ab7c8"/>
      <path id="Path_19" data-name="Path 19" d="M23.143,43.859l3.349,1.688a.83.83,0,0,0,1.1-.363L37.219,26.09a.832.832,0,0,0-.363-1.1L33.507,23.3a.82.82,0,0,0-1.1.363L22.781,42.757a.832.832,0,0,0,.361,1.1ZM33.5,25.134l1.883.95L26.5,43.713l-1.883-.95Z" fill="#2ab7c8"/>
      <path id="Path_20" data-name="Path 20" d="M43.853,34.705l-4.321,4.348a.819.819,0,0,0,0,1.16l2.659,2.644a.829.829,0,0,0,1.16,0L50.9,35.264a.83.83,0,0,0,0-1.16L42.66,25.918a.82.82,0,0,0-1.16,0l-2.643,2.659a.82.82,0,0,0,0,1.16ZM42.085,27.66l7.072,7.031L42.77,41.115l-1.5-1.487L45.6,35.28a.821.821,0,0,0,0-1.16L40.6,29.156Z" fill="#2ab7c8"/>
      <path id="Path_21" data-name="Path 21" d="M16.7,42.931a.83.83,0,0,0,1.16,0L20.5,40.268a.82.82,0,0,0,0-1.16l-4.347-4.322,4.964-4.994a.82.82,0,0,0,0-1.16L18.45,25.989a.819.819,0,0,0-1.16,0L9.1,34.228c-.609.614.029,1.185.455,1.608Zm1.179-15.2,1.5,1.487-4.964,4.994a.821.821,0,0,0,0,1.16l4.347,4.321-1.487,1.5L10.845,34.8Z" fill="#2ab7c8"/>
    </g>
  </g>
</svg>
