<svg xmlns="http://www.w3.org/2000/svg" width="24.725" height="20.05" viewBox="0 0 24.725 20.05">
  <g id="Group_35637" data-name="Group 35637" transform="translate(-332.139 -6751.475)">
    <path id="twitter" d="M1151.287,4017.438a9.005,9.005,0,0,1-2.831.8,5.412,5.412,0,0,0,2.126-2.765,8.277,8.277,0,0,1-3.183,1.124,0,0,0,0,0,0,0,5.1,5.1,0,0,0-8.789,3.518,5.008,5.008,0,0,0,.131,1.134h0a14.726,14.726,0,0,1-10.805-5.28,5.087,5.087,0,0,0,1.547,6.724,3.278,3.278,0,0,1-2.228-.573,4.9,4.9,0,0,0,3.934,4.974,4.024,4.024,0,0,1-2.123.16c.163,1.5,2.264,3.457,4.559,3.457a8.37,8.37,0,0,1-7.064,2.111,15.322,15.322,0,0,0,7.978,2.252,14.155,14.155,0,0,0,14.276-14.867c0-.009,0-.019,0-.027s0-.045,0-.064,0-.051,0-.077A8.8,8.8,0,0,0,1151.287,4017.438Z" transform="translate(-794.424 2736.448)" fill="#fff"/>
  </g>
</svg>
